<svg width="1201" height="921" viewBox="0 0 1201 921" fill="none" xmlns="http://www.w3.org/2000/svg">
<path d="M429 105.594V617.594M429 105.594C287.969 -41.296 150 -42.4058 0 149.594M429 105.594C595.735 250.451 797.934 152.757 922 9.59404" transform="translate(51 253.406)" stroke="#13262B" stroke-width="100" stroke-linecap="round"/>
<path d="M149.158 -3.23933C147.819 -6.71059 144.482 -9 140.761 -9C137.041 -9 133.704 -6.71059 132.364 -3.23933L10.4616 312.751C9.39377 315.519 9.75867 318.635 11.437 321.082C13.1154 323.528 15.8916 324.99 18.8584 324.99L262.664 324.99C265.631 324.99 268.407 323.528 270.085 321.082C271.764 318.635 272.129 315.519 271.061 312.751L149.158 -3.23933Z" transform="translate(977.02) rotate(37.592)" fill="#13262B" stroke="#13262B" stroke-width="18" stroke-linejoin="round"/>
</svg>
